<?xml version="1.0" encoding="utf-8"?>
<!-- Generator: Adobe Illustrator 27.6.1, SVG Export Plug-In . SVG Version: 6.00 Build 0)  -->
<svg version="1.1" id="图层_1" xmlns="http://www.w3.org/2000/svg" xmlns:xlink="http://www.w3.org/1999/xlink" x="0px" y="0px"
	 viewBox="0 0 192 192" style="enable-background:new 0 0 192 192;" xml:space="preserve">
<style type="text/css">
	.st0{fill:none;stroke:#000000;stroke-width:9;stroke-linecap:round;stroke-linejoin:round;stroke-miterlimit:10;}
</style>
<path class="st0" d="M39.04,68.94c-1.3-6.88-2.6-13.75-3.89-20.63c-0.06-0.3-0.13-0.63-0.37-0.82c6.83-2.65,13.68-4.34,21-4.13
	c1.37,7.62,2.09,15.35,2.16,23.1"/>
<path class="st0" d="M39.75,60.24c0.05,0.12-0.22,0.1-0.21-0.03c0.01-0.13,0.16-0.19,0.28-0.22c4.82-1.41,4.14-1.22,8.96-2.62"/>
<path class="st0" d="M40.87,72.65c6.59-2.64,9.79-1.7,16.68-3.41"/>
<path class="st0" d="M68.28,37.8c1.48,15.74-1.1,31.92-3.36,47.56"/>
<path class="st0" d="M67.9,36.03c4.36-1.04,8.76-1.88,13.2-2.52c0.45-0.07,0.95-0.12,1.33,0.14c0.35,0.24,0.49,0.67,0.61,1.07
	c4.49,15.68,3.65,32.05,5.79,48.22c-1.33,0-7.27-0.4-7.73-1.64"/>
<path class="st0" d="M73.38,52.82c2.36-0.44,4.54-0.83,6.93-1"/>
<path class="st0" d="M70.71,69.37c4.74-0.59,8.16-1.03,12.87-1.85"/>
<path class="st0" d="M106.73,43.33c1.16,9.42,4.58,37.23,5.74,46.65"/>
<path class="st0" d="M132.54,40.15c2.7,13.77,5.66,32.26,5.74,46.65"/>
<path class="st0" d="M108.72,43.08c6.24-0.64,13.9-1.71,21.84-2.69"/>
<path class="st0" d="M111.4,64.92c4.35-0.53,9.56-1.09,14.89-1.83"/>
<path class="st0" d="M116.44,89.49c5.96-0.73,14.23-2.6,19.85-2.44"/>
<path class="st0" d="M49.08,96.18c1.31,0.55,6.12,6.9,5.5,8.18"/>
<path class="st0" d="M36.63,122.11c19.46-10.12,22.84-8.66,44.39-12.71"/>
<path class="st0" d="M62.25,115.23c-1.35,10.46-8.4,35.43-16.78,41.84"/>
<path class="st0" d="M126.5,101.5c-3.39,2.65-0.28,1.49-3,3"/>
<path class="st0" d="M114.5,115.5c0.54,11.34,0.72,25.79-5.36,35.38c-2,3.15-4.97,6.06-8.68,6.44"/>
<path class="st0" d="M114.5,114.5c6.07-1.11,17.58-2.07,23.65-3.18c0.3-0.06,0.1,0.01,0.35,0.18c0.27,0.18,0.95,4.68,1,5
	c0.75,4.34,0.68,4.49,0.66,8.9c-0.03,6.3-0.05,12.6-0.08,18.89c-0.02,4.91-0.06,9.92-1.6,14.58c-1.51-0.24-2.68-1.78-2.51-3.3"/>
<path class="st0" d="M126.5,123.5c2,5-1.32-4.37-1.32,1.85"/>
<path class="st0" d="M97.5,139.5c25-3,30-4,57-9"/>
<path class="st0" d="M124.75,145.3c0.99,2.43-0.23-0.23,0.75,2.2"/>
<path class="st0" d="M59.19,135.95c5.87-3.72,12.84-5.67,19.79-5.53c-1.69,7.35-2.4,10.77-4.64,17.97
	c-0.82,2.66-1.39,3.33-3.38,8.81c-1.75-2.98-5.24-2.89-7.23-5.73"/>
</svg>
