<?xml version="1.0" encoding="utf-8"?>
<!-- Generator: Adobe Illustrator 27.6.1, SVG Export Plug-In . SVG Version: 6.00 Build 0)  -->
<svg version="1.1" id="图层_1" xmlns="http://www.w3.org/2000/svg" xmlns:xlink="http://www.w3.org/1999/xlink" x="0px" y="0px"
	 viewBox="0 0 192 192" style="enable-background:new 0 0 192 192;" xml:space="preserve">
<style type="text/css">
	.st0{fill:none;stroke:#000000;stroke-width:9;stroke-linecap:round;stroke-linejoin:round;stroke-miterlimit:10;}
</style>
<path class="st0" d="M96,111.05c0-0.05,21.26,0,21.26,0"/>
<polyline class="st0" points="76.5,73.5 94.5,92.5 76.5,109.1 "/>
<circle class="st0" cx="94" cy="91" r="45.5"/>
<path class="st0" d="M39.49,75.58c0.49-4.41,0.97-8.96-0.33-13.19c-0.76-2.48-2.1-4.74-2.84-7.23c-1.89-6.36,0.8-13.8,6.31-17.5
	c6.72-4.5,15.88-3.15,23.14,0.4c2.42,1.18,5.06,2.63,7.66,1.93c2.08-0.56,3.57-2.37,4.73-4.19c1.82-2.86,3.22-5.99,4.12-9.26
	c0.52-1.89,0.92-3.9,2.14-5.43c1.94-2.43,5.37-3,8.48-3.06c3.45-0.06,6.91,0.28,10.28,1.02c1.09,0.24,2.2,0.53,3.13,1.15
	c1.45,0.96,2.3,2.59,3.03,4.17c1.86,4.02,3.42,8.31,6.41,11.58c2.99,3.27,7.94,5.29,11.94,3.37c2.01-0.96,3.91-0.7,5.81-1.86
	c3.64-2.24,8.1-1.75,12,0s6.99,2.52,10.13,5.42c0.57,0.53,1.54,2.88,1.87,3.58c0.49,1.05-0.06,0.48-0.21,1.64
	c-1.45,11.5-1.7,16.97-1.6,24.39c0.01,1.06,0.04,2.2,0.7,3.04c0.57,0.73,1.5,1.07,2.37,1.37c3.28,1.14,6.57,2.28,9.85,3.42
	c1.06,0.37,2.21,1.26,2.89,2.15c0.63,0.82,0.75,1.41,0.87,2.44c1.12,9.04,1.13,14.56,1.13,23.56c-4,3-8.26,3.16-12.93,5.32
	c-4.67,2.16-8.31,7.46-6.82,12.37c3.14,3.53,4.97,8.2,5.06,12.93c0.01,0.75-0.02,1.52-0.29,2.21c-0.39,0.98-1.2,1.72-1.99,2.42
	c-2.79,2.48-5.59,4.95-8.38,7.43c-2.31,2.05-4.87,4.2-7.95,4.42c-4.07,0.28-7.43-2.92-11.17-4.53c-6.85-2.95-14.04,2.54-13.52,2.43
	c0,0-3,6-2.77,10.12c0.3,5.3-8.17,6.66-13.37,7.71c-4.93,1-10.25,1.35-14.82-0.77c-1.17-6.22-2.51-12.79-6.78-17.47
	c-4.27-4.68-12.51-6.32-16.79-1.65c-0.87,0.95-1.54,2.11-2.57,2.88c-2.42,1.82-5.83,0.97-8.71,0.04
	c-5.69-1.84-12.37-4.81-13.09-10.75c-0.55-4.6,2.87-8.6,4.63-12.89c2.98-7.25,0.69-16.4-5.54-21.15
	c-4.67,1.38-10.54,2.44-13.69-1.27c-1.38-1.62-1.85-3.81-2.15-5.91c-0.5-3.46-0.68-6.97-0.54-10.47c0.07-1.71,0.1-3.55,0.46-5.22
	c0.46-2.17,0.46-2.02,2.58-2.73c3.07-1.03,6.07-2.21,8.98-3.64C32.51,79.75,39.34,76.88,39.49,75.58z"/>
</svg>
