<?xml version="1.0" encoding="utf-8"?>
<!-- Generator: Adobe Illustrator 27.6.1, SVG Export Plug-In . SVG Version: 6.00 Build 0)  -->
<svg version="1.1" id="图层_1" xmlns="http://www.w3.org/2000/svg" xmlns:xlink="http://www.w3.org/1999/xlink" x="0px" y="0px"
	 viewBox="0 0 192 192" style="enable-background:new 0 0 192 192;" xml:space="preserve">
<style type="text/css">
	.st0{fill:none;stroke:#000000;stroke-width:9;stroke-linecap:round;stroke-linejoin:round;stroke-miterlimit:10;}
	.st1{fill:none;stroke:#000000;stroke-width:6.5;stroke-linecap:round;stroke-linejoin:round;stroke-miterlimit:10;}
</style>
<path class="st0" d="M46.1,56.29c2.11-2.26,5.01-3.73,8.01-4.47c13.4-3.32,31.22-3.32,47.4-3.32c8,0,14.87,0.5,22,1
	s14.01,1.93,19.37,6.65c3.07,2.7,5.36,6.16,7.42,9.7c1.61,2.76,2.44,6.55,3.21,9.66c0.88,3.54,0.11,6.36,0,10
	c-0.23,7.77,0.23,15.23,0,23c-0.12,3.92-0.74,10.29-2,14c-2.82,8.3-3.49,11.49-11,16c-1.62,0.98-7.17,3.51-9,4
	c-1.76,0.48-5.19,0.81-7,1c-18.44,1.94-37.35-0.42-56,0c-4.22,0.09-4.45,0.06-13-2c-4.5-1.09-7.77-4.69-11-8
	c-1.74-1.78-4.05-4.7-5-7c-1.46-3.55-2.65-6.25-2.75-10.08c-0.24-9.12-0.48-18.25-0.72-27.37c-0.12-4.53-0.59-9.21-0.3-13.74
	c0.2-3.16,0.01-6.37,1.77-8.8C40.18,62.78,42.94,59.67,46.1,56.29z"/>
<path class="st0" d="M80.5,77.5c-4.47,0.95-7,1-11.81,2.7c-1.4,0.5-0.82,0.73-2.19,1.3c-2.7,1.11-7.09,3.11-8.41,5.71"/>
<path class="st0" d="M110.5,77.5c5.29,0.28,8.61,1.8,13,4c2,1,6,2,9,6"/>
<path class="st1" d="M95.5,108.5c1.93,2.09,7.09,5.89,9,8c3.49-4.29,4.41-3.92,9-7"/>
<path class="st1" d="M76.5,109.5c2.7,2.41,5.48,5.64,8.68,7.34c1.45-2.84,8.87-5.5,10.32-8.34"/>
<path class="st0" d="M63.5,33.5c3.81,4.7,7.45,9.1,11,14"/>
<path class="st0" d="M127.92,33.44"/>
<path class="st0" d="M114.5,47.5c2.55-3.8,10.45-9.2,13-13"/>
</svg>
