<?xml version="1.0" encoding="utf-8"?>
<!-- Generator: Adobe Illustrator 27.6.1, SVG Export Plug-In . SVG Version: 6.00 Build 0)  -->
<svg version="1.1" id="图层_1" xmlns="http://www.w3.org/2000/svg" xmlns:xlink="http://www.w3.org/1999/xlink" x="0px" y="0px"
	 viewBox="0 0 192 192" style="enable-background:new 0 0 192 192;" xml:space="preserve">
<style type="text/css">
	.st0{fill:none;stroke:#000000;stroke-width:9;stroke-linecap:round;stroke-linejoin:round;stroke-miterlimit:10;}
</style>
<polygon class="st0" points="134.18,142.07 108.5,142.5 96,158.77 83.5,142.5 57.95,142.37 46.5,129.5 45.5,57.5 55.5,45.5 
	134.18,45.5 144.5,59.5 144.5,127.32 "/>
<rect x="63.5" y="63.5" class="st0" width="38" height="15"/>
<polygon class="st0" points="110.5,64.5 119.5,77.5 126.5,64.5 "/>
<rect x="63" y="87" class="st0" width="15" height="15"/>
<circle class="st0" cx="94.5" cy="95.5" r="6"/>
<circle class="st0" cx="70.5" cy="119.5" r="6"/>
<rect x="87.5" y="112.5" class="st0" width="38" height="14"/>
<polygon class="st0" points="121.84,100.23 118.48,98.36 115.03,100.08 115.77,96.3 113.07,93.55 116.89,93.08 118.68,89.67 
	120.3,93.16 124.1,93.8 121.28,96.42 "/>
</svg>
