<?xml version="1.0" encoding="utf-8"?>
<!-- Generator: $$$/GeneralStr/196=Adobe Illustrator 27.6.0, SVG Export Plug-In . SVG Version: 6.00 Build 0)  -->
<svg version="1.1" id="图层_1" xmlns="http://www.w3.org/2000/svg" xmlns:xlink="http://www.w3.org/1999/xlink" x="0px" y="0px"
	 viewBox="0 0 192 192" style="enable-background:new 0 0 192 192;" xml:space="preserve">
<style type="text/css">
	.st0{fill:none;stroke:#000000;stroke-width:6;stroke-miterlimit:10;}
	.st1{stroke:#000000;stroke-width:4;stroke-miterlimit:10;}
</style>
<path class="st0" d="M153.61,98.51c6.3,2.46,5.72,7.26-1.61,13.24l-6.3,5.15l5.72,4.69l5.57,4.57l6.3-4.57
	c4.54-3.28,7.77-4.69,10.7-4.69c5.72,0,7.47,2.69,7.47,11.36c0,16.4-19.49,29.99-40.01,28.11l-7.47-0.82l-10.55,8.2
	c-8.94,6.91-11.28,8.2-15.53,8.2c-4.25,0-6.45-1.05-12.75-6.33c-4.25-3.63-7.47-7.5-7.47-8.9c0-1.64,3.96-5.86,10.41-11.25
	l10.55-8.55l-0.88-5.39c-2.49-14.17,8.06-28.11,24.91-32.92C139.69,96.64,148.92,96.64,153.61,98.51z"/>
<path class="st1" d="M132.22,22.02c5.57,1.64,8.5,6.21,9.38,14.64l0.73,7.61h5.72c11.43,0,21.1,6.21,24.47,15.81
	c2.05,5.97,2.05,23.43,0.15,26.47c-2.2,3.16-10.26,3.05-11.28-0.12c-0.73-2.34-1.76-2.34-69.17-2.11l-68.29,0.35v23.66
	c0,23.31,0,23.66,3.52,26.59c3.52,3.05,3.81,3.05,26.09,3.05c22.13,0,22.42,0,24.62,2.81c1.91,2.23,2.05,3.4,0.73,5.27
	c-1.47,2.34-2.78,2.46-25.35,2.46c-21.84,0-24.18-0.23-29.6-2.69c-3.22-1.52-7.18-4.69-9.09-7.26c-3.22-4.57-3.37-5.51-3.37-41.94
	c0-34.91,0.15-37.48,2.93-41.82c3.81-5.86,13.34-10.54,21.69-10.54h6.16v-5.27c0-7.03,3.81-14.29,8.65-16.4
	c2.93-1.29,11.58-1.64,40.74-1.76C111.85,20.85,130.16,21.32,132.22,22.02z M56.45,32.09c-0.59,0.47-1.03,3.4-1.03,6.56v5.62h36.78
	h36.64l-0.44-6.21l-0.44-6.09l-35.32-0.35C73.3,31.51,57.04,31.74,56.45,32.09z M27.58,57.75c-2.49,2.11-3.66,4.69-4.1,9.37
	l-0.59,6.44h69.17h69.17l-0.59-6.44c-0.44-4.69-1.61-7.26-4.1-9.37l-3.37-2.93H92.06H30.95L27.58,57.75z"/>
</svg>
