<?xml version="1.0" encoding="utf-8"?>
<!-- Generator: Adobe Illustrator 27.6.1, SVG Export Plug-In . SVG Version: 6.00 Build 0)  -->
<svg version="1.1" id="图层_1" xmlns="http://www.w3.org/2000/svg" xmlns:xlink="http://www.w3.org/1999/xlink" x="0px" y="0px"
	 viewBox="0 0 192 192" style="enable-background:new 0 0 192 192;" xml:space="preserve">
<style type="text/css">
	.st0{fill:none;stroke:#000000;stroke-width:9;stroke-linecap:round;stroke-linejoin:round;stroke-miterlimit:10;}
</style>
<path class="st0" d="M54.5,42.5c0,7,0,10,0,15c0,6.36,0.12,12.53,0.45,18.88c0.39,7.47,0.55,17.12,0.55,24.12"/>
<path class="st0" d="M57.5,68.5c11,0,18,0,28,0"/>
<path class="st0" d="M89.5,42.5c-0.38,19.57,1,39,0,58"/>
<path class="st0" d="M142.5,57.5c-6.92-0.14-14.6-1.19-21.28,0.58c-2.81,0.75-3.14,1.41-3.57,4.32c-0.52,3.49-2.6,6.62-3.15,10.1
	c3.79,0.29,9.2,0.16,12.99,0.35c3.79,0.19,7.76,1.17,10.44,3.87c3.44,3.46,3.9,9.25,1.67,13.59c-2.23,4.34-6.73,7.23-11.5,8.25
	s-9.77,0.33-14.42-1.15"/>
<path class="st0" d="M119.81,44.21c-1.43,9.34-3.72,18.2-6.31,27.29"/>
<path class="st0" d="M27.5,128.5c0.37,0.01,10.68-1.2,11-1c0.53,0.33,5.98-2.49,6,1c0.04,6.95,1.41,15.32,1,18
	c-0.22-3.86-1.27-11.35,0-15c0.67-1.93,7.03-4.49,9-5c2.37-0.62,6.71-1.08,8,1c2.84,4.58,1,14,1,19"/>
<path class="st0" d="M26.5,123.5c0.81,5.1,0.03,17.94-1,23"/>
<path class="st0" d="M109.77,123.2c7.23,0,14.46,0,21.69,0"/>
<path class="st0" d="M122.97,111.09c-0.91,10.67-1.82,21.34-2.73,32.01c-0.07,0.78-0.13,1.58,0.12,2.32
	c0.25,0.74,4.36,1.09,5.14,1.08"/>
<path class="st0" d="M162.5,124.5c-3.6-2.25-4.75-3.13-9-3c-0.62,0.02-3.99-0.09-6,1c-0.55,0.3-2.63,2.49-3,3
	c-1.8,2.45-1.67,3.6-2.1,6.61c-0.49,3.43,0.58,7.04,2.84,9.66c2.26,2.62,5.69,4.19,9.15,4.2c1.13,0,2.28-0.16,3.33-0.57
	c0.69-0.27,1.33-0.63,1.94-1.04c5.8-3.87,6.93-11.21,4.84-17.87c2.04,6.51,6.48,13.19,6,20"/>
<circle class="st0" cx="89" cy="134" r="10.5"/>
</svg>
