<?xml version="1.0" encoding="utf-8"?>
<!-- Generator: Adobe Illustrator 27.6.1, SVG Export Plug-In . SVG Version: 6.00 Build 0)  -->
<svg version="1.1" id="图层_1" xmlns="http://www.w3.org/2000/svg" xmlns:xlink="http://www.w3.org/1999/xlink" x="0px" y="0px"
	 viewBox="0 0 192 192" style="enable-background:new 0 0 192 192;" xml:space="preserve">
<style type="text/css">
	.st0{fill:none;stroke:#000000;stroke-width:9;stroke-linecap:round;stroke-linejoin:round;stroke-miterlimit:10;}
</style>
<path class="st0" d="M143.5,58.5c-0.86,9.51,0.19,24,0,33c-0.06,2.83,0.21,5.98,0.37,8.45c0.63,9.55-6.74,18.87-12.37,25.55
	c-2,2.37-3.38,4.38-5.74,6.39c-2.79,2.38-6.3,4.43-9.26,6.61c-2.66,1.95-4.81,3.62-7.68,5.24c-3.18,1.79-7.64,1.74-9.6,4.82
	c-0.26,0.41-0.49,0.88-0.93,1.08c-0.62,0.28-1.32-0.11-1.89-0.5c-2.38-1.61-4.75-3.21-7.13-4.82c-5.01-3.39-10.04-6.79-15.48-9.44
	c-3.15-1.54-7.52-5.24-10.29-7.39c-2.83-2.19-5.92-4.09-8-7c-1.8-2.51-2.2-2.49-4-5c-1.18-1.65-1.75-4.56-2.3-6.51
	c-0.51-1.82-0.42-3.74-0.33-5.62c0.51-11.06,0.83-22.13,0.95-33.19c0.03-2.86,0.05-5.71,0.05-8.57c0-1.82-0.45-4.29,0.25-6.03
	c1.11-2.78,4.74-3.53,7.27-4.39c4.29-1.47,8.59-2.9,12.97-4.1c5.01-1.37,10.12-2.44,15.3-2.88c8.82-0.74,17.7,0.35,26.37,2.11
	c7.11,1.44,14.14,3.32,20.93,5.89c3.45,1.3,6.87,2.81,9.78,5.06c-14.96,8.52-29.92,17.04-44.88,25.56
	c-0.65,0.37-1.33,0.75-2.07,0.85c-1.85,0.25-3.2-1.54-4.83-2.45C82.5,76.5,75.53,74.49,68.5,70.5c-3.45-1.96-7.38-4.06-10.82-6.04
	c-2.48-1.43-7.5-3.85-7.8-7.15"/>
<path class="st0" d="M95.5,86.5c0.02,12.78,0.84,25.48,0.97,38.27c0.03,2.73-0.06,4.32,0.03,6.73c0.14,4.18,0,9,0,13"/>
</svg>
