<?xml version="1.0" encoding="utf-8"?>
<!-- Generator: Adobe Illustrator 27.6.1, SVG Export Plug-In . SVG Version: 6.00 Build 0)  -->
<svg version="1.1" id="图层_1" xmlns="http://www.w3.org/2000/svg" xmlns:xlink="http://www.w3.org/1999/xlink" x="0px" y="0px"
	 viewBox="0 0 192 192" style="enable-background:new 0 0 192 192;" xml:space="preserve">
<style type="text/css">
	.st0{fill:none;stroke:#000000;stroke-width:9;stroke-linecap:round;stroke-linejoin:round;stroke-miterlimit:10;}
</style>
<path class="st0" d="M99.33,114.56c-3.09,1.48-4.75,0.47-7.83,1.94c2.74-0.24,4.06,2,6.8,1.76c-1.99,3.14-5.09,6.01-8.8,6.24
	s-7.33,0.43-11,1c-1.37,0.21-3.4,0.75-4,2c-0.34,0.71-3.07,4.22-3,5c0.23,2.7,3-2,3-2c0-4,1.38,1.51,2,2c0.76,0.6,4.03-6.11,5-6
	c4.89,0.55,2.15-3.16,13,4c1.65,1.09,1.05,0.04,2.99,0.48c1.28,2.17,0.84,9.8-0.99,11.52s1.31,3-1,4c-0.98,0.42-0.36,2.15-1,3
	c-0.93,1.23-2.06,2.45-2,4c0.33,8.03-6.43,10.19-7.06,18.21c-0.08,1.03-0.23,2.19-1.05,2.82c-0.91,0.71-2.22,0.44-3.33,0.14
	c-11.76-3.18-23.74-6.83-33.37-14.29S26.51,134.52,28.5,122.5c3.09,1.03,11.58,9.77,12,13c2.92-5.97-0.36-12.59-1.31-19.17
	c-1.3-8.98-0.92-18.2,1.12-27.04c0.6-2.59,0.77-6.9,3.19-5.8c1.06,3.49,2.37,8.31,2.63,11.95c0.27,3.64,1.82,7.68,5.26,8.9
	c5.66-5.78,4.55-15.17,7.11-22.85c1-3,1.48-7.47,2-11c0.66-4.53,1-6,2.08-11.63c0.22-1.16,0.02-2.51,0.91-3.28
	c0.56-0.48,1.33-0.64,2.06-0.71c3.64-0.31,7.21,1.45,9.9,3.93s4.61,5.65,6.51,8.77c6.51-7.24,8.23-17.42,10.74-26.83
	c0.52-1.94,1.73-3.55,2.8-5.25c1.05-1.66,1.88-3.35,3.4-4.6c3.6-2.96,7.42-5.33,11.6-7.4c3.18,2.46,4.16,6.62,5.05,10.54
	c2.13,9.32,5.72,18.31,10.6,26.54c2.18,3.67,4.77,7.34,8.57,9.3c1.12,0.58,2.69,0.9,3.47-0.08c0.42-0.53,0.45-1.26,0.42-1.93
	c-0.21-4.39-2.11-9.41,0.72-12.77c6.76,4.66,7.21,14.22,8.05,22.38c0.81,7.86,2.6,15.58,4.38,23.27c0.12,0.54,0.27,1.11,0.66,1.49
	c0.47,0.45,1.18,0.54,1.83,0.53c4.21-0.03,8.23-3.03,9.46-7.06c2.42,20.85-3.42,42.55-15.98,59.37
	c-4.35,5.83-10.17,11.43-17.42,12.02c-0.65,0.05-1.38,0.04-1.85-0.42c-0.34-0.33-0.46-0.81-0.57-1.27
	c-1.07-4.54-2.14-9.07-3.21-13.61c-2.62-11.09-5.23-22.18-7.22-33.39c-1.11-6.25-2.01-12.53-2.72-18.84
	c-0.31-2.8-0.59-5.63-0.17-8.42c0.96-6.34,0.7-10.84,4.91-15.67c-8.23,6.76-13.46,10.78-23.89,12.95
	c-4.27,0.89-10.01,0.24-12.11,4.05c-1.92,3.48,1.77,5.14-1,8c-2.78,2.87-12,4.36-15,7c-2.36,2.08,11.34-0.82,16,4
	C87.66,115.8,93.89,111.61,99.33,114.56z"/>
</svg>
