<?xml version="1.0" encoding="utf-8"?>
<!-- Generator: Adobe Illustrator 27.6.1, SVG Export Plug-In . SVG Version: 6.00 Build 0)  -->
<svg version="1.1" id="图层_1" xmlns="http://www.w3.org/2000/svg" xmlns:xlink="http://www.w3.org/1999/xlink" x="0px" y="0px"
	 viewBox="0 0 192 192" style="enable-background:new 0 0 192 192;" xml:space="preserve">
<style type="text/css">
	.st0{fill:none;stroke:#000000;stroke-width:9;stroke-linecap:round;stroke-linejoin:round;stroke-miterlimit:10;}
</style>
<line class="st0" x1="73.5" y1="87.5" x2="73.5" y2="102.81"/>
<line class="st0" x1="88.5" y1="83.5" x2="88.5" y2="109.97"/>
<line class="st0" x1="103.5" y1="88.5" x2="103.5" y2="104.33"/>
<line class="st0" x1="118.56" y1="83.5" x2="118.56" y2="109.97"/>
<path class="st0" d="M40.07,91.01c0.8-2.17,1.75-4.32,3.26-6.08c1.43-1.67,3.74-5.77,5.17-7.43c1.72-1.99,5-5.29,7-7c7-6,7-6,13-11
	c2.11-1.76,5.02-4.09,7-6c2.47-2.38,7.08-5.21,10-7c7.77-4.77,12.66-8.04,21.03-11.66c4.66-2.02,8.93-3.68,13.97-4.34
	s10.66-0.64,15,2c2.45,1.5,6.99,4.95,9,7c5.2,5.31,8.25,9.8,11.46,16.51c3.45,7.22,4.23,15.41,4.35,23.41
	c0.17,12.37-1.16,24.88-5.34,36.52s-11.35,22.4-21.36,29.66c-4,2.89-8.4,5.2-12.92,7.17c-6.31,2.75-12.98,4.88-19.85,5.26
	c-14.08,0.78-27.75-5.92-38.26-15.31c-5.99-5.34-11.13-11.55-15.85-18.02c-2.42-3.32-4.72-6.72-6.99-10.14
	c-2.54-3.82-2.22-5.05-2.9-9.93C36.17,99.99,38.45,95.4,40.07,91.01z"/>
<path class="st0" d="M45.5,59.5c3.64-4.54,7.26-8.62,12-12c3.22-2.29,7.22-3.48,10.91-4.9c6.75-2.61,14.31-2.14,21.4-0.71
	c29.13,5.87,54.26,28.47,63.19,56.81c1.33,4.22,2.33,8.63,1.93,13.03c-0.35,3.89-1.78,7.59-3.25,11.2c-2,4.91-4.17,9.86-7.61,13.89
	c-3.18,3.72-7.29,6.49-11.4,9.14c-9.1,5.89-18.78,11.59-29.55,12.88c-6.74,0.81-13.55-0.16-20.24-1.27
	c-6.34-1.05-12.67-2.23-18.96-3.53c-3.07-0.64-6.16-1.31-8.98-2.68c-5.55-2.7-10.71-6.94-14.43-11.85
	c-3.53-4.66-5.97-10.45-6.74-16.25c-0.25-1.85-0.18-3.72-0.12-5.59c0.51-15.46-0.09-32.37,5.53-47.07
	C40.52,67.05,42.77,62.23,45.5,59.5z"/>
</svg>
