<?xml version="1.0" encoding="utf-8"?>
<!-- Generator: Adobe Illustrator 27.6.1, SVG Export Plug-In . SVG Version: 6.00 Build 0)  -->
<svg version="1.1" id="图层_1" xmlns="http://www.w3.org/2000/svg" xmlns:xlink="http://www.w3.org/1999/xlink" x="0px" y="0px"
	 viewBox="0 0 192 192" style="enable-background:new 0 0 192 192;" xml:space="preserve">
<style type="text/css">
	.st0{fill:none;stroke:#000000;stroke-width:9;stroke-linecap:round;stroke-linejoin:round;stroke-miterlimit:10;}
</style>
<path class="st0" d="M54.23,52.51c23.92-2.7,48.21-2.94,72.67-2.28"/>
<path class="st0" d="M69.98,40.98c1.85,9.82,3.14,19.75,3.86,29.71"/>
<path class="st0" d="M103.79,36.61c3.37,12.1,4.52,20.36,3.71,32.89"/>
<path class="st0" d="M53.5,85.5c3.04,7.93,1.29,12.89,1.78,21.36c0.51,8.73,1.71,17.41,2.91,26.07c-0.31-1.16-0.62-2.31-0.93-3.47"
	/>
<path class="st0" d="M53.5,85.5c8.4-0.94,17.79,0.03,26-2c0.22,16.13,3.02,30.06,2.89,46.19"/>
<path class="st0" d="M56.46,114.01c4.22-2.2,9.15-2.55,13.91-2.58"/>
<path class="st0" d="M58.5,133.5c4.19-3.23,18.92-1.52,24-3"/>
<path class="st0" d="M101.99,88.25c0.01,14.28,0.86,30.16-1.49,44.25c-1,6-2.6,13.61-3,21"/>
<path class="st0" d="M102.5,86.5c9.19-6.58,21-5,32-5c7,25,4.09,48.19,3.92,73.72c-1.52,0.03-7.87-3.62-8.92-4.72"/>
<path class="st0" d="M103.62,108.22c13.56-4.59,8.69-4.85,22.88-6.72"/>
<path class="st0" d="M105.5,125.5c14.2-3.43,16.53-2.29,30.93-4.77"/>
</svg>
