<?xml version="1.0" encoding="utf-8"?>
<!-- Generator: Adobe Illustrator 27.6.1, SVG Export Plug-In . SVG Version: 6.00 Build 0)  -->
<svg version="1.1" id="图层_1" xmlns="http://www.w3.org/2000/svg" xmlns:xlink="http://www.w3.org/1999/xlink" x="0px" y="0px"
	 viewBox="0 0 192 192" style="enable-background:new 0 0 192 192;" xml:space="preserve">
<style type="text/css">
	.st0{fill:none;stroke:#000000;stroke-width:9;stroke-linecap:round;stroke-linejoin:round;stroke-miterlimit:10;}
</style>
<path class="st0" d="M31.5,124.5c0.74-9.71,3-22,4-31c0.5-4.5,0.16-2.3,3-12c2.04,4.54,4.7,6.2,6,11c0.74,2.73,4.11,7.32,5,10
	c0.54,1.62,2.06,5.3,3,7c3.08,5.57,2.56,8.65,6,14c3.46-6.72,3.17-16.66,5-24c2-8,1-12,2.98-18.63"/>
<path class="st0" d="M118.81,81.5c-5.66,0.06-11.32,0.11-16.98,0.05C96.71,81.5,91.5,80.5,87.5,82.5c-3,3-4.64,7.87-5,12
	c-0.64,7.2-3.74,21.06-1,26c2.07,3.73-2.44,1.55,5,4c1.86,0.61,6.61-0.18,7,0c0.42,0.2,6.54-0.94,7-1c5.02-0.64,4.79-1.2,9-4
	c1.46-0.97,3-2.75,3-1c0,1,1.64-3.7,2-4c0.35-0.3-0.1-3.55,0-4c0.76-3.32,0.17-2.6,0-6c-0.05-0.92,1-0.09,0.34-0.73
	c-0.48-0.46-0.69-2.12-1.34-2.27c-4.14-0.96-8.81-0.19-13.04-0.67"/>
<path class="st0" d="M147.5,80.5c-5,12-4,9-9,23c-1.38,3.86-4.6,10.15-6,14c0.51-1.41-4.51,8.41-4,7"/>
<path class="st0" d="M152.5,79.5c3.69,14.37,4.31,30.63,8,45"/>
<path class="st0" d="M140.29,111.89c6.02-1.59,11.99,0.89,18.21,0.61c1.02-0.05-0.67-2.77,0-2"/>
</svg>
