<?xml version="1.0" encoding="utf-8"?>
<!-- Generator: Adobe Illustrator 27.6.1, SVG Export Plug-In . SVG Version: 6.00 Build 0)  -->
<svg version="1.1" xmlns="http://www.w3.org/2000/svg" xmlns:xlink="http://www.w3.org/1999/xlink" x="0px" y="0px"
	 viewBox="0 0 192 192" style="enable-background:new 0 0 192 192;" xml:space="preserve">
<style type="text/css">
	.st0{fill:none;stroke:#000000;stroke-width:9;stroke-linecap:round;stroke-linejoin:round;stroke-miterlimit:10;}
</style>
<g id="图层_1">
</g>
<g id="图层_2">
	<path class="st0" d="M45.5,38c0,8.15,0.32,15.93,0.29,23.92c-0.07,19.02-0.13,38.04-0.2,57.06"/>
	<path class="st0" d="M50.02,39.17c14.66-0.87,23.66-2.8,39.52,4.66c7.95,6.8,6.7,12.16,6.78,18.26c0.07,5.6-1.19,11.17-5.65,14.36
		c-2.08,1.49-8.82,4.08-11.29,4.66c-10.56,2.46-18.57,3.19-29.36,2.33"/>
	<path class="st0" d="M114.38,76.44c6.59,0.12,12.62-0.56,19.2,0"/>
	<path class="st0" d="M123.09,60.77c0.33,12.18,0.33,23.83,0.14,36.41c-0.07,4.64-0.17,8.43,0.19,13.05
		c0.13,1.74,1.21,4.44,2.33,5.75c1.57,1.83,4.29,1.83,6.65,1.7"/>
	<path class="st0" d="M66.96,125.38c-0.58,8.09-0.26,21.01,0,29.12"/>
	<path class="st0" d="M69.21,125.38c3.6-0.51,11.48,1.2,14.72,2.91c0.65,0.34,1.83,1.12,2.22,1.75c0.46,0.74-0.03,1.3-0.12,2.18
		c-0.19,1.92-0.93,3.77-2.1,5.28c-0.69,0.89-1.56,1.67-2.6,2.06c-0.94,0.35-5.46,3.31-6.46,3.3c-3.66-0.01-4.25,0.01-7.9,0"/>
	<path class="st0" d="M96.31,125.38c-1.13,8.15,0.76,19.6-0.45,28"/>
	<path class="st0" d="M97.44,125.38c3.17-0.88,5.95,0.47,9.23,0.44c0.7-0.01,1.57-0.18,2.05,0.35c1.32,1.45,2.63,4.71,2.27,3.87
		c-0.91-2.15,1.14,3.8,0,5.82c-0.64,1.15-1.93,1.75-3.02,2.45c-2.22,1.42-4.64,2.9-7.25,2.68c4.96,1.51,5.18,3.09,9.14,6.52
		c2.39,2.07,3.26,3.75,5.65,5.83"/>
	<path class="st0" d="M130.19,137.02c-1.11,2.93-0.87,3.06-0.85,6.21s0.87,6.35,2.74,8.85c0.3,0.41,0.65,0.81,1.11,1
		c0.34,0.14,0.72,0.16,1.09,0.17c2.28,0.05,5.5,0.48,7.2-1.09c1.11-1.03,2.99-3.18,3.39-4.66c0.62-2.32,1.13-4.58,1.13-6.99
		c0-2.33-2.47-9.32-4.52-10.49c-1.45-0.82-7.39,0.2-9.03,0c-1.18-0.14-1.14,3.09-2.26,3.49s-1.05,8.1-1.13,9.32"/>
</g>
</svg>
