<?xml version="1.0" encoding="utf-8"?>
<!-- Generator: $$$/GeneralStr/196=Adobe Illustrator 27.6.0, SVG Export Plug-In . SVG Version: 6.00 Build 0)  -->
<svg version="1.1" id="图层_1" xmlns="http://www.w3.org/2000/svg" xmlns:xlink="http://www.w3.org/1999/xlink" x="0px" y="0px"
	 viewBox="0 0 192 192" style="enable-background:new 0 0 192 192;" xml:space="preserve">
<g transform="translate(0.000000,297.000000) scale(0.100000,-0.100000)">
	<path d="M1317.63,2776.47c-111.74-38.8-203.3-105.53-256.06-187.78c-85.35-133.46-90.01-173.81-91.56-774.39l-1.55-552.47
		l-27.93,88.46c-35.69,113.29-77.59,180.02-159.84,256.06c-83.8,77.59-187.78,127.26-288.65,139.67l-79.15,9.31v-274.68v-274.68
		l369.35,4.66c366.25,4.66,367.8,4.66,448.5,46.56c105.53,55.87,186.23,139.67,235.89,245.2l40.35,85.35l4.66,609.89l4.66,608.34
		h-58.97C1424.71,2804.4,1362.64,2791.99,1317.63,2776.47z"/>
</g>
</svg>
