<?xml version="1.0" encoding="utf-8"?>
<!-- Generator: Adobe Illustrator 27.6.1, SVG Export Plug-In . SVG Version: 6.00 Build 0)  -->
<svg version="1.1" id="图层_1" xmlns="http://www.w3.org/2000/svg" xmlns:xlink="http://www.w3.org/1999/xlink" x="0px" y="0px"
	 viewBox="0 0 192 192" style="enable-background:new 0 0 192 192;" xml:space="preserve">
<style type="text/css">
	.st0{fill:none;stroke:#000000;stroke-width:12;stroke-linecap:round;stroke-linejoin:round;stroke-miterlimit:10;}
	.st1{fill:none;stroke:#000000;stroke-width:12;stroke-miterlimit:10;}
	.st2{fill:none;stroke:#000000;stroke-width:12;stroke-linejoin:round;stroke-miterlimit:10;}
	.st3{fill:none;stroke:#000000;stroke-width:6.5;stroke-linecap:round;stroke-linejoin:round;stroke-miterlimit:10;}
</style>
<g>
	<path class="st0" d="M128.62,162.52c-0.8,0.4-1.7,0.8-2.6,1.2c-3,1.3-6,2.4-9.1,3.3c-36.1,10.6-73.8-7.5-88.6-41
		c3.2-4.6,7.4-8.6,11.8-11.9c-0.8-7.9,1-15.9,6.7-24.3c9.2,2.7,17.1,7.6,23.4,14.8c10.2-1.9,20-0.4,29.4,3.5
		c8.3-4.2,16.2-6.5,23.6-6.2c0.8-0.1,1.6,0.5,1.8,1.4c1.6,8.7,0.8,16.8-2.7,24.2C127.62,139.02,131.12,151.22,128.62,162.52
		L128.62,162.52z"/>
	<circle cx="59.82" cy="130.42" r="6"/>
	<circle cx="100.42" cy="136.12" r="6"/>
	<path class="st1" d="M128.62,162.52c-0.8,0.4-1.7,0.8-2.6,1.2c-3,1.3-6,2.4-9.1,3.3c-36.1,10.6-73.8-7.5-88.6-41
		c-0.5-1.2-1-2.4-1.5-3.7c-0.6-1.8-1.3-3.6-1.8-5.4c-11.5-39.2,10.9-80.3,50.1-91.9c39.2-11.5,80.3,10.8,91.9,50.1
		C177.32,110.22,160.42,146.92,128.62,162.52z"/>
	<path class="st2" d="M122.5,128.62l19.5-11.3v-43.3l-37.5-21.7L67,74.02V99"/>
</g>
<polyline class="st3" points="101.5,67.5 116.5,76.5 101.5,85.02 "/>
<line class="st3" x1="101.5" y1="93.48" x2="118.77" y2="93.48"/>
</svg>
