<?xml version="1.0" encoding="utf-8"?>
<!-- Generator: Adobe Illustrator 27.6.1, SVG Export Plug-In . SVG Version: 6.00 Build 0)  -->
<svg version="1.1" id="图层_1" xmlns="http://www.w3.org/2000/svg" xmlns:xlink="http://www.w3.org/1999/xlink" x="0px" y="0px"
	 viewBox="0 0 192 192" style="enable-background:new 0 0 192 192;" xml:space="preserve">
<style type="text/css">
	.st0{fill:none;stroke:#000000;stroke-width:9;stroke-linecap:round;stroke-linejoin:round;stroke-miterlimit:10;}
</style>
<path class="st0" d="M37.5,70.5c13-1,26,0,38,0"/>
<path class="st0" d="M57.13,75.72c0.21,10.66-0.63,20.82-0.63,32.78c0,3,0,2,0,6"/>
<path class="st0" d="M106.86,82.53c-4.33-1.86-8.49-2.44-12.61-2.3c-2.65,0.09-5.29,0.19-7.84,0.93c-3.15,0.91-5.18,3.34-6.71,5.89
	c-1.7,2.81-2.19,5.45-2.19,8.45c0,2.16,0,3.84,0,6c0,6,1.88,6.91,2,9c0.06,0.98-0.03-0.31,1,1c1.51,1.92-1.85,0.22,2,2
	c3.04,1.41,3.94,1.64,7,2c0.55,0.06,3.84-0.92,4-1c2-1,3.8-0.73,4-1c3-4,2.43-1.86,6-9c1-2,1.72-5.07,2.14-9.14
	c0.12-1.21,0.32-2.41,0.37-3.63c0.09-2.36,0.41-6.87,0.49-9.23c0.32-0.18,0.32,2.49,0.36,2.86c0.83,7.82-1.34,15.37-1.37,23.64
	c-0.01,1.78,0.57,3.87,1.38,5.67c0.74,1.65,1.88,2.28,3.62,1.83"/>
<path class="st0" d="M121.82,77.35c1.06,1,1.8,2.29,2.34,3.64c1.29,3.22,1.47,6.77,1.55,10.24c0.08,3.46,0.09,6.92,0.08,10.39
	c-0.02,10.09-0.14,20.19-0.36,30.28"/>
<path class="st0" d="M129.5,85.5c0.87-0.83,2.47-3.26,4-4c2.34-1.14,5.48-1.5,8.08-1.31c2.6,0.2,5.08,1.55,6.65,3.63
	c0.76,1,1.31,2.15,1.77,3.33c2.29,5.83,2.5,12.33,1.34,18.49c-0.23,1.22-0.52,2.45-1.09,3.55c-1.09,2.09-3.14,3.56-5.36,4.34
	c-2.22,0.78-4.61,0.95-6.97,0.94c-2.29,0-9.42-0.91-10.42-2.97"/>
</svg>
