<?xml version="1.0" encoding="utf-8"?>
<!-- Generator: Adobe Illustrator 27.6.1, SVG Export Plug-In . SVG Version: 6.00 Build 0)  -->
<svg version="1.1" id="图层_1" xmlns="http://www.w3.org/2000/svg" xmlns:xlink="http://www.w3.org/1999/xlink" x="0px" y="0px"
	 viewBox="0 0 192 192" style="enable-background:new 0 0 192 192;" xml:space="preserve">
<style type="text/css">
	.st0{fill:none;stroke:#000000;stroke-width:9;stroke-linecap:round;stroke-linejoin:round;stroke-miterlimit:10;}
</style>
<polygon class="st0" points="56.59,44.23 56.59,114.15 120.49,113.93 135.01,129.9 150.98,113.93 165.5,113.93 165.5,44.23 "/>
<polyline class="st0" points="140.81,134.26 140.81,150.6 74.02,150.23 56.59,167.15 41.87,150.7 29,150.7 29,80.45 56.59,80.45 "/>
<polyline class="st0" points="84.91,88.94 84.91,59.19 106.67,59.19 107.51,88.94 "/>
<polyline class="st0" points="96.21,68.26 96,94.63 83.5,105.5 "/>
<path class="st0" d="M97.18,96c0.32-0.5,11.39,9.5,11.39,9.5"/>
<polyline class="st0" points="127.77,59.19 128.19,74.08 128.61,88.94 "/>
<line class="st0" x1="146.97" y1="74.06" x2="128.19" y2="74.08"/>
<polyline class="st0" points="120.38,105.5 119.5,92.5 142.5,92.5 142.5,105.5 120.5,105.5 "/>
</svg>
