<?xml version="1.0" encoding="utf-8"?>
<!-- Generator: Adobe Illustrator 27.6.1, SVG Export Plug-In . SVG Version: 6.00 Build 0)  -->
<svg version="1.1" id="图层_1" xmlns="http://www.w3.org/2000/svg" xmlns:xlink="http://www.w3.org/1999/xlink" x="0px" y="0px"
	 viewBox="0 0 192 192" style="enable-background:new 0 0 192 192;" xml:space="preserve">
<style type="text/css">
	.st0{fill:none;stroke:#000000;stroke-width:9;stroke-linecap:round;stroke-linejoin:round;stroke-miterlimit:10;}
</style>
<path class="st0" d="M85.89,127.78c4.32,1.6,5.29,7.99,9.59,9.65c1.14,0.44,1.61,1.95,2.63,2.63c3.94,2.63,4.28,3.01,7.88,6.57
	c4.73,4.67,13.11,6.67,18.39,2.63c0.92-0.71,3.51-2.86,3.94-3.94c0.36-0.9,1.28-1.65,1.31-2.63c0.08-2.79,1.45-4.19,0.75-6.9
	c-2.09-8.09-7.31-14.23-13.89-19.38c-12.12-9.48-23.46-21.27-33.99-32.49c-2.8-2.99-5.31-5.49-8.06-8.24
	c-1.31-1.31-0.4-0.4-1.31-1.31c-1.31-1.31-3.12-3.12-3.94-3.94c-2.63-2.63-4.81-4.62-6.99-7.26c-2.19-2.64-2.56-5.09-2.21-8.5
	c0.49-4.76,1.31-3.94,5.26-7.88c2.48-2.48,6.57-5.26,10.51-5.26c0.85,0,9.73,1.46,13.14,6.57c2.63,3.94,7.17,7.17,10.51,10.51
	c1.31,1.31,3.94,3.94,5.26,5.26"/>
<path class="st0" d="M63.95,144c-6.57-6.57,0.22,1.8,2.63,2.63c2.72,0.93,5.03,4.31,7.88,3.94c3.65-0.48,8.58-3.52,11.83-5.26
	c1.69-0.91,5.28-2.51,6.57-3.94c1.2-1.33,4.35-3.71,5.26-5.26c2.27-3.89,2.53-5.89,6.57-7.88"/>
<path class="st0" d="M86.28,63.85c1.31-2.63,4.28-5.59,6.57-7.88c2.63-2.63,4.63-3.85,6.57-5.26c3.83-2.77,5.28-5.2,9.12-7.97
	c2.29-1.65,5.14-1.23,7.97-1.23c5.26,0,6.77,1.61,9.2,3.94c2.43,2.33,3.5,2.28,4.79,5.39c0.79,1.9,1.49,3.88,1.57,5.94
	c0.13,3.37-3.19,6.88-5.05,9.69c-1.3,1.98-2.21,2.32-3.94,3.94c-2.6,2.43-6.25,5.9-9.2,7.88c-8.98,6.04-14.97,13.27-22.67,20.87
	c-1.69,1.66-3.37,3.33-5.03,5.01c-7.73,7.82-15.01,16.09-21.79,24.74c-2,2.55-4.03,5.3-4.46,8.51c-0.43,3.21,5.34,9.18,5.34,7.87"/>
<path class="st0" d="M155.92,111.15c-3.18,1.06-12.19-4.93-14.08-7.7c-4.32-6.35-9.68-12-15.79-16.65"/>
<path class="st0" d="M125.61,106.43c2.72-3.16,5.9-6.39,7.97-9.73c1.18-1.91,2.73-2.06,4-3.91c3.22-4.68,7.93-8.15,13.08-10.55
	c2.69-1.25,6.27-1.8,9.2-1.31c2.06,0.34,6.32,1.24,7.88,2.63c3.47,3.07,5.26,7.22,5.26,11.83c0,5.26-1.31,9.2-6.57,13.14
	c-2.1,1.58-6.67,1.94-7.88,2.63"/>
<path class="st0" d="M20.59,100.64c0-6.57-1.82-10.01,2.63-14.45c5.26-5.26,11.83-5.26,17.08-2.63c3.94,1.97,7.71,4.39,10.7,7.62
	c4.81,5.21,9.63,10.43,14.44,15.64"/>
<path class="st0" d="M65.53,86.24c-4.24,4.92-8.48,9.83-12.73,14.75c-1.93,2.24-3.89,4.5-6.26,6.26
	c-6.08,4.53-15.45,10.47-25.96-3.99"/>
</svg>
