<?xml version="1.0" encoding="utf-8"?>
<!-- Generator: Adobe Illustrator 27.6.1, SVG Export Plug-In . SVG Version: 6.00 Build 0)  -->
<svg version="1.1" id="图层_1" xmlns="http://www.w3.org/2000/svg" xmlns:xlink="http://www.w3.org/1999/xlink" x="0px" y="0px"
	 viewBox="0 0 192 192" style="enable-background:new 0 0 192 192;" xml:space="preserve">
<style type="text/css">
	.st0{fill:#040000;}
	.st1{fill:none;stroke:#000000;stroke-width:9;stroke-linecap:round;stroke-linejoin:round;stroke-miterlimit:10;}
</style>
<g>
	<path class="st0" d="M66,178.82c-3.86,0-7.02-3.16-7.02-7.02l0-27.85c0-3.29,2.18-6.3,5.39-7.04c4.56-1.04,8.64,2.44,8.64,6.83
		v28.06C73.01,175.66,69.86,178.82,66,178.82L66,178.82z M100.61,178.85c-3.86,0-7.02-3.16-7.02-7.02l0-41.88
		c0-3.29,2.18-6.3,5.39-7.04c4.56-1.04,8.64,2.44,8.64,6.83v42.09C107.62,175.69,104.46,178.85,100.61,178.85L100.61,178.85z
		 M135.21,178.9c-3.86,0-7.02-3.16-7.02-7.02l0-62.93c0-3.29,2.18-6.3,5.39-7.04c4.56-1.04,8.64,2.44,8.64,6.83v63.14
		C142.23,175.75,139.07,178.9,135.21,178.9L135.21,178.9z M164.21,179c-3.86,0-7.02-3.16-7.02-7.02V70.47c0-3.29,2.18-6.3,5.39-7.04
		c4.56-1.04,8.64,2.44,8.64,6.83v101.72C171.23,175.84,168.07,179,164.21,179L164.21,179z M30.66,115.89c-3.14,0-4.89,0-5.58-0.35
		c-3.84-0.35-6.63-3.84-6.28-7.68c0.35-3.84,3.84-6.63,7.68-6.28c2.79,0.35,71.2,5.58,122.51-76.78c2.09-3.14,6.28-4.19,9.77-2.09
		c3.14,2.09,4.19,6.28,2.09,9.77C113.03,109.61,49.85,115.89,30.66,115.89z"/>
	<path class="st0" d="M166.43,48.68c-2.79,0-5.58-1.75-6.63-4.89l-5.58-16.4l-18.15,6.28c-3.49,1.4-7.68-0.7-8.73-4.19
		c-1.4-3.49,0.7-7.68,4.19-8.73l24.78-8.38c1.75-0.7,3.84-0.35,5.24,0.35c1.75,0.7,2.79,2.44,3.49,4.19l7.68,23.04
		c1.4,3.49-0.7,7.68-4.54,8.73H166.43L166.43,48.68z"/>
</g>
<path class="st1" d="M43.8,49.91c0.56,7.02,3.79,13.53,7.21,19.69c2.38,4.29,4.88,8.51,7.5,12.65c4.84-4.21,6.02-11.14,6.9-17.5
	c0.79-5.77,1.59-11.55,1.72-17.38"/>
</svg>
