<?xml version="1.0" encoding="utf-8"?>
<!-- Generator: Adobe Illustrator 27.6.1, SVG Export Plug-In . SVG Version: 6.00 Build 0)  -->
<svg version="1.1" id="图层_1" xmlns="http://www.w3.org/2000/svg" xmlns:xlink="http://www.w3.org/1999/xlink" x="0px" y="0px"
	 viewBox="0 0 192 192" style="enable-background:new 0 0 192 192;" xml:space="preserve">
<style type="text/css">
	.st0{fill:none;stroke:#000000;stroke-width:9;stroke-linecap:round;stroke-linejoin:round;stroke-miterlimit:10;}
</style>
<path class="st0" d="M14,50.51c5.64,18.04,7.89,27.06,15.79,47.36c6.91-18.88,10.22-29.36,19.17-47.36"/>
<path class="st0" d="M68.3,71.74c-0.18,10.34-1.04,16.01-0.18,26.13"/>
<path class="st0" d="M91.8,49.38c1.13,15.79,1.13,32.7,0.54,49"/>
<path class="st0" d="M117.74,51.63c-7.54,7.29-12.23,14.68-19.17,22.55c9.02,10.15,13.53,13.53,22.55,23.68"/>
<path class="st0" d="M80.53,153.12c1.06-4.04,0.84-3.97,2.26-7.89c2.66-7.35,7.48-19.86,12.4-25.93
	c4.33,9.64,9.44,23.74,13.07,33.67"/>
<path class="st0" d="M103.08,142.97c-3.57-0.53-14.62,1.15-18.04,0"/>
<path class="st0" d="M139.16,120.42c-4.51-1.13-13.53,0-16.91,5.64c-0.45,0.76-0.66,2.79-1.13,2.26c-0.48-0.56-1.12,7.16-1.13,7.89
	c-0.05,5.08,1.02,6.14,2.64,10.96c0.42,1.26,0.93,2.54,1.83,3.52c1.72,1.85,4.5,2.22,7.02,2.18c3.73-0.06,7.45-0.76,10.95-2.06"/>
<path class="st0" d="M176.37,123.8c-3.38-2.26-6.77-3.38-10.15-3.38c-3.26,0-3.94-0.14-6.67,1.64c-1.8,1.17-4.86,5.43-5.73,7.38
	c-2.33,5.2-1.4,8.69-0.97,14.37c0.25,3.32,1.14,6.85,3.69,8.98c2.54,2.11,6.1,2.35,9.4,2.49c2.43,0.1,5.14,0.11,6.92-1.56
	c1.08-1.01,1.6-2.45,2.03-3.86c0.99-3.27,1.65-6.64,1.96-10.04c0.71,5.7-0.48,9.92,0.64,16.69"/>
<path class="st0" d="M67.45,54.39c0.17,0.98,0.34,1.95,0.51,2.93"/>
</svg>
