<?xml version="1.0" encoding="utf-8"?>
<!-- Generator: Adobe Illustrator 27.6.1, SVG Export Plug-In . SVG Version: 6.00 Build 0)  -->
<svg version="1.1" xmlns="http://www.w3.org/2000/svg" xmlns:xlink="http://www.w3.org/1999/xlink" x="0px" y="0px"
	 viewBox="0 0 192 192" style="enable-background:new 0 0 192 192;" xml:space="preserve">
<style type="text/css">
	.st0{fill:none;stroke:#000000;stroke-width:9;stroke-linecap:round;stroke-linejoin:round;stroke-miterlimit:10;}
</style>
<g id="图层_1">
</g>
<g id="图层_2">
	<path class="st0" d="M75.12,121.19c2.11,4.31,1.22,4.87,3.65,9.74c0.29,0.57,3.94,6.73,3.65,7.3c-0.57,1.14-6.39,1.05-7.67,0.99
		c-6.64-0.34-13.11-2.26-19.26-4.8c-14.39-5.94-28.12-16.43-32.4-31.4c-1.74-6.09-1.81-12.51-1.86-18.84
		c-0.05-5.69-0.06-11.58,2.19-16.8c3.45-8.01,5.44-9.48,11.52-15.57c3.97-3.97,12.02-8.42,17.04-10.95
		c3.94-1.99,10.42-3.48,14.61-4.87c4.33-1.43,11.83-0.47,15.82,0c17,2.01,21.24,7.32,30.43,14.61c7.11,5.64,8.58,21.68,10.96,24.34
		c5.12,5.76,20.25,0.35,27.24,3.62c7,3.27,12.11,9.71,15.25,16.77c3.33,7.48,4.68,15.96,2.95,23.96c-1.72,8-6.61,12.61-13.79,16.52
		c-4.06,2.21-10.05,4.11-14.61,4.87c-9.21,1.54-19.9-1.79-29.21-2.43c-0.17,4.39,3.61,14.57,5.91,18.31"/>
</g>
</svg>
