<?xml version="1.0" encoding="utf-8"?>
<!-- Generator: Adobe Illustrator 27.6.1, SVG Export Plug-In . SVG Version: 6.00 Build 0)  -->
<svg version="1.1" id="图层_1" xmlns="http://www.w3.org/2000/svg" xmlns:xlink="http://www.w3.org/1999/xlink" x="0px" y="0px"
	 viewBox="0 0 192 192" style="enable-background:new 0 0 192 192;" xml:space="preserve">
<style type="text/css">
	.st0{fill:none;stroke:#000000;stroke-width:9;stroke-linecap:round;stroke-linejoin:round;stroke-miterlimit:10;}
</style>
<path class="st0" d="M73.08,25.91c3.59-2.57,8.08-3.53,12.48-3.93c3.27-0.3,6.55-0.32,9.83-0.29c5.9,0.06,11.93,0.33,17.43,2.46
	s10.46,6.47,11.89,12.19c0.46,1.84,0.54,3.75,0.6,5.65c0.39,11.68,0.18,23.38-0.64,35.04c-0.57,8.1-0.16,16.45-0.16,24.56
	c0,3.48,0-2.32,0,2.32c0,1.16-2.32,4.64-4.64,9.29c-2.58,5.15-6.83,7.55-12.42,8.94c-3.25,0.8-6.63,0.84-9.98,0.8
	c-5.29-0.06-10.67-0.31-15.69-1.98c-4-1.33-7.65-3.53-11.26-5.7c-2.44-1.47-5.22-2.68-5.22-5.53c0-2.32-0.03-3.81,0-5.81
	c0.19-11.27-1.33-22.79-1.15-34.06c0.09-5.52,0.18-11.05,0.27-16.57c0.08-5.11-0.84-11.48,0.33-16.45
	C65.66,32.87,69.85,28.22,73.08,25.91z"/>
<path class="st0" d="M49.03,96.94c-0.62,5.85,0.17,13.01,2.94,18.2c2.57,4.8,7.5,7.78,12.21,10.52c5.96,3.47,12.02,6.99,18.69,8.73
	c10.12,2.65,20.85,1.03,31.03-1.37c3.78-0.89,10.25-3.06,12.93-5.88c1.13-1.19,3.41-3.56,4.64-4.64c1.42-1.24-0.26,0.07,1.16-1.16
	c1.81-1.57,2.36-3.89,3.26-6.12c2.41-5.94,4.46-9.55,4.87-15.95"/>
<path class="st0" d="M94.31,141.07c0.46,5.1,0,18.58,0,23.22"/>
<path class="st0" d="M47.26,168.93c32.36,0.9,64.73,1.24,97.1,1"/>
</svg>
